<svg width="279" height="30" viewBox="0 0 279 30" fill="none" xmlns="http://www.w3.org/2000/svg">
<path d="M25.6055 0H4.39453C1.97159 0 0 1.97159 0 4.39453V25.6055C0 28.0284 1.97159 30 4.39453 30H13.2422V19.3945H9.72656V14.1211H13.2422V10.5469C13.2422 7.63893 15.6077 5.27344 18.5156 5.27344H23.8477V10.5469H18.5156V14.1211H23.8477L22.9688 19.3945H18.5156V30H25.6055C28.0284 30 30 28.0284 30 25.6055V4.39453C30 1.97159 28.0284 0 25.6055 0Z" fill="#21243D"/>
<path d="M102.721 0H89.2787C84.7138 0 81 3.71402 81 8.27892V21.7211C81 26.2862 84.7138 30 89.2787 30H102.721C107.286 30 111 26.286 111 21.7211V8.27892C111 3.71402 107.286 0 102.721 0ZM108.338 21.7211C108.338 24.8185 105.818 27.3383 102.721 27.3383H89.2787C86.1815 27.3384 83.6617 24.8185 83.6617 21.7211V8.27892C83.6617 5.18171 86.1815 2.66175 89.2787 2.66175H102.721C105.818 2.66175 108.338 5.18171 108.338 8.27892V21.7211H108.338Z" fill="#21243D"/>
<path d="M96 7.27026C91.7375 7.27026 88.2697 10.738 88.2697 15.0005C88.2697 19.2628 91.7375 22.7304 96 22.7304C100.263 22.7304 103.73 19.2628 103.73 15.0005C103.73 10.738 100.263 7.27026 96 7.27026ZM96 20.0685C93.2053 20.0685 90.9315 17.795 90.9315 15.0003C90.9315 12.2055 93.2052 9.93183 96 9.93183C98.7948 9.93183 101.068 12.2055 101.068 15.0003C101.068 17.795 98.7946 20.0685 96 20.0685Z" fill="#21243D"/>
<path d="M104.054 5.01318C103.542 5.01318 103.038 5.2208 102.676 5.58457C102.312 5.94657 102.102 6.45053 102.102 6.96513C102.102 7.47814 102.312 7.98192 102.676 8.34569C103.038 8.70769 103.542 8.91708 104.054 8.91708C104.569 8.91708 105.071 8.70769 105.435 8.34569C105.799 7.98192 106.006 7.47796 106.006 6.96513C106.006 6.45053 105.799 5.94657 105.435 5.58457C105.073 5.2208 104.569 5.01318 104.054 5.01318Z" fill="#21243D"/>
<path d="M198.923 3.55154C197.55 4.15385 196.087 4.55308 194.562 4.74692C196.131 3.81 197.328 2.33769 197.892 0.563077C196.428 1.43538 194.813 2.05154 193.092 2.39538C191.702 0.916154 189.722 0 187.562 0C183.372 0 179.998 3.40154 179.998 7.57154C179.998 8.17154 180.048 8.74846 180.173 9.29769C173.88 8.99077 168.312 5.97462 164.571 1.38C163.918 2.51308 163.535 3.81 163.535 5.20615C163.535 7.82769 164.885 10.1515 166.897 11.4969C165.681 11.4738 164.488 11.1208 163.477 10.5646C163.477 10.5877 163.477 10.6177 163.477 10.6477C163.477 14.3262 166.101 17.3815 169.542 18.0854C168.925 18.2538 168.254 18.3346 167.557 18.3346C167.072 18.3346 166.583 18.3069 166.124 18.2054C167.105 21.2031 169.888 23.4069 173.197 23.4785C170.622 25.4931 167.352 26.7069 163.812 26.7069C163.191 26.7069 162.595 26.6792 162 26.6031C165.353 28.7654 169.327 30 173.612 30C187.542 30 195.157 18.4615 195.157 8.46C195.157 8.12538 195.145 7.80231 195.129 7.48154C196.632 6.41538 197.894 5.08385 198.923 3.55154Z" fill="#21243D"/>
<path d="M274.605 0H253.395C250.972 0 249 1.97159 249 4.39453V25.6055C249 28.0284 250.972 30 253.395 30H274.605C277.028 30 279 28.0284 279 25.6055V4.39453C279 1.97159 277.028 0 274.605 0ZM259.605 23.7891H256.09V11.4844H259.605V23.7891ZM259.605 9.72656H256.09V6.21094H259.605V9.72656ZM271.91 23.7891H268.395V16.7578C268.395 15.7887 267.606 15 266.637 15C265.668 15 264.879 15.7887 264.879 16.7578V23.7891H261.363V11.4844H264.879V12.147C265.8 11.8607 266.398 11.4844 267.516 11.4844C269.9 11.4869 271.91 13.6258 271.91 16.1536V23.7891Z" fill="#21243D"/>
</svg>
